<mxfile host="app.diagrams.net" modified="2022-09-04T01:47:18.303Z" agent="5.0 (Macintosh)" etag="ElpFTJ08F6FFH4u1peVv" version="20.2.8" type="github">
  <diagram id="kZtPU7Hmq_8cMO_7oV8p" name="Page-1">
    <mxGraphModel dx="1139" dy="589" grid="1" gridSize="10" guides="1" tooltips="1" connect="1" arrows="1" fold="1" page="1" pageScale="1" pageWidth="850" pageHeight="1100" math="0" shadow="0">
      <root>
        <mxCell id="0" />
        <mxCell id="1" parent="0" />
        <mxCell id="UAZxKlSuEchCdSORoiPl-10" style="edgeStyle=orthogonalEdgeStyle;curved=1;rounded=0;orthogonalLoop=1;jettySize=auto;html=1;exitX=1;exitY=0.25;exitDx=0;exitDy=0;entryX=0.007;entryY=0.321;entryDx=0;entryDy=0;entryPerimeter=0;" edge="1" parent="1" source="UAZxKlSuEchCdSORoiPl-1" target="UAZxKlSuEchCdSORoiPl-2">
          <mxGeometry relative="1" as="geometry" />
        </mxCell>
        <mxCell id="UAZxKlSuEchCdSORoiPl-11" value="symlink to source file" style="edgeLabel;html=1;align=center;verticalAlign=middle;resizable=0;points=[];" vertex="1" connectable="0" parent="UAZxKlSuEchCdSORoiPl-10">
          <mxGeometry x="0.3561" y="-6" relative="1" as="geometry">
            <mxPoint x="-31" as="offset" />
          </mxGeometry>
        </mxCell>
        <mxCell id="UAZxKlSuEchCdSORoiPl-1" value="&lt;div&gt;&lt;b&gt;Node.js&lt;/b&gt;&lt;/div&gt;&lt;div&gt;&lt;b&gt;&lt;br&gt;&lt;/b&gt;&lt;/div&gt;&lt;div&gt;&lt;span style=&quot;height: 152px;&quot; class=&quot;docker_readmore readmore-js-section readmore-js-expanded&quot;&gt;/watch -&amp;gt; mnt/user/Media/Handbrake_hotfolder/watch/&lt;/span&gt;&lt;/div&gt;" style="whiteSpace=wrap;html=1;aspect=fixed;align=left;verticalAlign=top;" vertex="1" parent="1">
          <mxGeometry x="410" y="340" width="140" height="140" as="geometry" />
        </mxCell>
        <mxCell id="UAZxKlSuEchCdSORoiPl-2" value="&lt;div&gt;&lt;b&gt;Handbrake&lt;br&gt;&lt;/b&gt;&lt;/div&gt;&lt;div&gt;&lt;b&gt;&lt;br&gt;&lt;/b&gt;&lt;/div&gt;&lt;div&gt;&lt;span style=&quot;height: 152px;&quot; class=&quot;docker_readmore readmore-js-section readmore-js-expanded&quot;&gt;/watch -&amp;gt; mnt/user/Media/Handbrake_hotfolder/watch/&lt;/span&gt;&lt;/div&gt;&lt;div&gt;&lt;span style=&quot;height: 152px;&quot; class=&quot;docker_readmore readmore-js-section readmore-js-expanded&quot;&gt;&lt;br&gt;&lt;/span&gt;&lt;/div&gt;&lt;div&gt;&lt;span style=&quot;height: 152px;&quot; class=&quot;docker_readmore readmore-js-section readmore-js-expanded&quot;&gt;/storage -&amp;gt; /mnt/user/Media&lt;/span&gt;&lt;span style=&quot;height: 152px;&quot; class=&quot;docker_readmore readmore-js-section readmore-js-expanded&quot;&gt;&lt;/span&gt;&lt;/div&gt;" style="whiteSpace=wrap;html=1;aspect=fixed;align=left;verticalAlign=top;" vertex="1" parent="1">
          <mxGeometry x="630" y="220" width="140" height="140" as="geometry" />
        </mxCell>
        <mxCell id="UAZxKlSuEchCdSORoiPl-5" style="edgeStyle=orthogonalEdgeStyle;curved=1;rounded=0;orthogonalLoop=1;jettySize=auto;html=1;entryX=0;entryY=0.25;entryDx=0;entryDy=0;exitX=1.014;exitY=0.314;exitDx=0;exitDy=0;exitPerimeter=0;" edge="1" parent="1" source="UAZxKlSuEchCdSORoiPl-4" target="UAZxKlSuEchCdSORoiPl-1">
          <mxGeometry relative="1" as="geometry" />
        </mxCell>
        <mxCell id="UAZxKlSuEchCdSORoiPl-9" value="source file path" style="edgeLabel;html=1;align=center;verticalAlign=middle;resizable=0;points=[];" vertex="1" connectable="0" parent="UAZxKlSuEchCdSORoiPl-5">
          <mxGeometry x="-0.4884" y="9" relative="1" as="geometry">
            <mxPoint as="offset" />
          </mxGeometry>
        </mxCell>
        <mxCell id="UAZxKlSuEchCdSORoiPl-4" value="&lt;div&gt;&lt;b&gt;Radarr&lt;br&gt;&lt;/b&gt;&lt;/div&gt;&lt;div&gt;&lt;b&gt;&lt;br&gt;&lt;/b&gt;&lt;/div&gt;&lt;div&gt;&lt;span style=&quot;height: 190px;&quot; class=&quot;docker_readmore readmore-js-section readmore-js-expanded&quot;&gt;/media -&amp;gt; mnt/user/Media/Movies/&lt;/span&gt;&lt;/div&gt;" style="whiteSpace=wrap;html=1;aspect=fixed;align=left;verticalAlign=top;" vertex="1" parent="1">
          <mxGeometry x="190" y="220" width="140" height="140" as="geometry" />
        </mxCell>
        <mxCell id="UAZxKlSuEchCdSORoiPl-8" value="&lt;div align=&quot;left&quot;&gt;&lt;ol&gt;&lt;li&gt;Receive Radarr source file path (/media)&lt;br&gt;&lt;/li&gt;&lt;li&gt;&lt;div&gt;Convert source file path to Handbrake mapping (/storage)&lt;/div&gt;&lt;/li&gt;&lt;li&gt;Construct symlink to source file using Handbrake mapping (/storage)&lt;br&gt;&lt;/li&gt;&lt;li&gt;Write symlink to Handbrake watch folder (/watch)&lt;br&gt;&lt;/li&gt;&lt;/ol&gt;&lt;/div&gt;" style="text;html=1;align=center;verticalAlign=middle;resizable=0;points=[];autosize=1;strokeColor=none;fillColor=none;" vertex="1" parent="1">
          <mxGeometry x="300" y="490" width="430" height="100" as="geometry" />
        </mxCell>
      </root>
    </mxGraphModel>
  </diagram>
</mxfile>
